<svg xmlns="http://www.w3.org/2000/svg" width="512" height="512" viewBox="0 0 1080 1080">
  <rect width="1080" height="1080" rx="220" fill="#476a32"/>
  <path fill="#f0f2d2" transform="translate(185.74 180.09)" d="M 601.73 475.18 C 622.35 367.93 565.14 282.28 457.61 261.55 C 438.33 257.84 421.36 257.39 401.81 257.59 C 436.78 216.41 462.86 171.54 459.28 115.77 C 454.72 44.82 394.01 -2.35 325.38 0.09 C 196.3 9.53 141.93 158.03 131.92 268.09 C 107.35 228.18 76.75 192.31 41.22 161.75 C 28.56 176.14 11.55 194.74 0 209.52 C 54.4 260.2 95.93 317.8 118.71 389.4 C 123.45 404.29 128.63 436.28 134.94 448.16 C 148.52 473.72 195.68 463.45 193.67 430.83 C 193.65 414.69 192.18 400.1 191.52 384.66 C 190.72 362.32 190.89 339.96 192.05 317.63 C 195.84 240.65 212.35 142.16 273.62 87.8 C 289.76 73.37 307.21 65.07 328.5 62.95 C 363.29 59.05 395.72 88.41 395.59 123.29 C 395.33 195.65 322.54 250.02 267.01 285 C 237.78 303.41 247.8 343.38 281.3 344.54 C 295.74 345.04 321.08 332.83 336.16 330.9 C 405.98 314.1 505.96 312.82 536.12 394.04 C 542.93 415.44 544.1 432.67 540.56 455.12 C 444.29 431.7 327.4 461.41 242.87 510.08 C 188.95 541.12 136.18 605.63 173.5 669.59 C 188.15 694.7 218.96 710 246.64 716.22 C 317.11 730.23 400.8 701.39 459.23 663.82 C 509.77 631.57 551.56 587.34 580.87 535.05 C 609.55 550.34 643.16 571.56 667.49 593.18 C 679.75 579.04 697.4 559.93 708.52 545.61 C 672.33 514.96 645.81 495.46 601.73 475.18 Z M 493.66 550.74 C 442.48 610.96 369.86 648.88 291.19 656.47 C 249.68 657.66 198.93 640.7 240.62 593.4 C 261.39 569.83 291.68 554.18 320.34 542.28 C 362.49 524.76 407.04 513.94 452.68 511.04 C 479.06 510.18 491.75 511.35 517.94 515.32 C 510.8 528.66 503.39 539.15 493.66 550.74 Z"/>
</svg>
