<?xml version="1.0" encoding="UTF-8"?>
<svg id="Layer_1" xmlns="http://www.w3.org/2000/svg" version="1.1" viewBox="0 0 1465.35 824.74">
  <!-- Generator: Adobe Illustrator 29.8.2, SVG Export Plug-In . SVG Version: 2.1.1 Build 3)  -->
  <defs>
    <style>
      .st0 {
        fill: currentColor;
      }
    </style>
  </defs>
  <path class="st0" d="M882.56,286.24s-12.14-27.15-35.38-43.81c0,0-23.24-16.66-63.15-16.66,0,0-30.85,0-54.71,11.93,0,0-23.86,11.93-40.52,31.47,0,0-16.66,19.54-25.3,44.43,0,0-8.64,24.89-8.64,50.39,0,0,0,6.17.41,12.55,0,0,.19,2.97.58,7.08-27.54-49.09-77.28-84.15-143.7-96.95-16.27-3.13-31.04-4.23-47.61-4.46,29.63-37.05,59.12-86.13,55.1-148.83-2.5-38.85-20.08-73.81-49.52-98.44C441.62,11.09,404.54-1.28,365.71.1h-.26c-34.77,2.56-66.68,14.2-94.84,34.61-24.94,18.08-47,43.07-65.57,74.27-27.62,46.42-47.57,107.96-55.83,171.35-25.3-37.69-55.51-71.75-90.02-101.43l-5.25-4.51-4.57,5.2c-3.14,3.57-6.52,7.37-10.03,11.31-11.94,13.43-25.47,28.64-35.39,41.34l-3.95,5.06,4.7,4.37c63.51,59.17,105.44,122.65,128.16,194.08,1.87,5.89,3.87,14.56,5.98,23.74,3.71,16.16,7.56,32.88,12.29,41.79,8.44,15.89,27.96,23.15,47.45,17.65,19.36-5.46,31.15-21.2,30.08-40.13-.02-11.49-.7-22.36-1.36-32.87-.36-5.81-.74-11.81-1-17.75-.87-24.25-.67-48.75.58-72.84,5.8-117.75,35.08-200.82,87.04-246.93,17.08-15.27,34.92-23.36,56.24-25.49,16.11-1.81,32.71,3.76,45.53,15.27,12.89,11.57,20.25,27.55,20.19,43.85-.27,75.99-78.66,134.14-137.6,171.27-17.55,11.05-25.7,29.98-20.77,48.22,4.73,17.5,20.4,29.25,39.92,29.93,10.24.35,23.71-4.04,36.75-8.29,8.86-2.89,18.02-5.88,24.49-6.71l.75-.14c25.87-6.23,76.23-15.23,122.78-5.63,44.45,9.17,74.07,32.81,88.04,70.29,6.26,19.72,7.95,36.04,5.6,56.11-48.72-10.49-105.02-9.77-163.41,2.16-56,11.44-111.45,32.36-160.34,60.52-20.62,11.87-39.6,27.13-54.88,44.12-17.49,19.45-29.18,39.91-34.75,60.83-7.33,27.53-3.6,54.25,11.07,79.4,14.87,25.49,46.51,45.82,84.64,54.39l.17.04c14.21,2.83,28.75,4.12,43.41,4.11,70.88,0,144.34-30.15,194.63-62.49,53.13-33.9,97.96-80.17,130.21-134.24.86,3.31,1.89,6.69,3.15,10.03,0,0,7.2,19.13,19.95,33.94,0,0,12.75,14.81,30.03,23.65,0,0,17.28,8.84,37.02,8.84,0,0,16.04-.82,32.5-7.4,0,0,13.99-5.76,29.62-17.48,0,0,15.63-11.72,27.97-33.94v55.54l71.58,4.11s2.06-70.35,2.67-135.35c0,0,.62-65,.62-130,0,0,0-35.79-3.5-70.14,0,0-3.5-34.35-15.63-61.5h0ZM544.98,605.86c-27.32,32.14-60.13,58.34-97.52,77.86-37.32,19.49-77.5,31.44-119.4,35.51-31.26.84-57.35-7.68-63.49-20.77-5.33-11.38,4.55-26.24,13.77-36.71,11.32-12.84,32.42-32.43,84.78-54.17,46.39-19.28,94.38-30.62,142.64-33.7,24.63-.8,37.98.02,60.04,3.14-5.82,9.73-12.36,18.75-20.83,28.84h.01ZM686.95,488.65s-2.88,2.2-7.07,6.01c2.19-38.75-5.13-74.29-20.7-104.79,8.79-.15,39.43-.69,91.95-1.6,0,0-2.06-8.23-2.67-15.63,0,0-.62-7.4-.62-13.58,0,0,0-9.05,1.85-18.31,0,0,1.85-9.26,5.76-16.87,0,0,3.91-7.61,10.28-12.34,0,0,6.38-4.73,15.43-4.73,0,0,14.81,0,23.86,13.37,0,0,9.05,13.37,9.05,40.52,0,0,0,16.46-7.61,29,0,0-7.61,12.55-23.45,26.33,0,0-15.84,13.78-39.7,30.65,0,0-23.86,16.87-56.36,41.96h0ZM815.71,483.91s-1.23,15.84-2.88,26.95c0,0-1.65,13.16-3.7,23.45,0,0-3.29,14.4-9.87,26.33,0,0-6.58,11.93-15.02,20.98,0,0-8.43,9.05-17.69,13.99,0,0-9.26,4.94-17.9,4.94,0,0-11.52,0-19.34-9.67,0,0-7.82-9.67-7.82-21.19,0,0,0-10.7,5.97-22.01,0,0,5.97-11.31,14.81-22.01,0,0,8.84-10.7,19.54-20.36,0,0,10.7-9.67,20.16-17.48,0,0,5.35-4.94,11.52-11.11,0,0,5.35-5.35,11.52-12.34,0,0,6.17-6.99,12.75-16.04,0,0-.82,19.75-2.06,35.58h0Z"/>
  <path class="st0" d="M1165.84,253.74s-32.36-.82-97.09-2.47c0,0,2.88,49.37,4.73,84.54,0,0,1.85,35.17,3.29,59.65,0,0,1.44,24.48,2.26,39.29,0,0,.82,14.81,1.03,24.07,0,0,.21,9.26.41,13.99,0,0,.21,4.73.21,8.43,0,0,0,56.36-10.7,82.07,0,0-10.7,25.71-27.15,25.71,0,0-9.46,0-17.07-5.97,0,0-7.61-5.97-12.96-19.13,0,0-5.35-13.16-8.43-33.94,0,0-3.09-20.77-3.09-50.39,0,0,0-49.78,3.29-90.5,0,0,3.29-40.73,6.79-69.73,0,0,3.5-29,6.17-44.84,0,0,2.67-15.84,1.44-15.84,0,0-31.68-2.74-95.03-8.23,0,0-3.29,64.59-5.55,106.34,0,0-2.26,41.76-3.91,67.26,0,0-1.65,25.51-2.47,37.44,0,0-.82,11.93-1.23,16.25,0,0-.37,3.84-.41,4.1.01,0,.05.13.2,1.04,0,0,.21,1.23.41,6.79,0,0,.21,5.55.21,21.6,0,0,0,35.79,4.11,67.26,0,0,4.11,31.47,15.43,54.92,0,0,11.31,23.45,31.88,37.02,0,0,20.57,13.58,53.89,13.58,0,0,4.94,0,12.55-1.03,0,0,7.61-1.03,15.84-4.32,0,0,8.23-3.29,16.66-9.05,0,0,8.43-5.76,15.02-15.63,0,0,.82,6.99.82,12.55v10.9s0,16.87-2.06,27.56c0,0-2.06,10.7-6.38,16.66,0,0-4.32,5.97-11.31,8.23,0,0-6.99,2.26-16.87,2.26,0,0-13.58,0-32.09-1.23,0,0-15.63-.82-39.08-2.06,0,0-23.45-1.23-53.48-3.29,0,0-1.1,30.03-3.29,90.09,0,0,38.26,4.94,68.29,6.99,0,0,30.03,2.06,53.07,2.06,0,0,45.25,0,72.82-10.49,0,0,27.56-10.49,42.37-34.97,0,0,14.81-24.48,19.75-64.38,0,0,4.94-39.9,4.94-99.14,0,0,0-93.38-2.26-183.27,0,0-2.26-89.89-5.97-178.75h0Z"/>
  <path class="st0" d="M910.37,481.86h0s0,0,0,0Z"/>
  <path class="st0" d="M1461.66,366.46s-3.7-37.85-13.37-67.26c0,0-9.67-29.41-26.12-47.1,0,0-16.46-17.69-41.96-17.69,0,0-9.46,0-21.39,2.26,0,0-11.93,2.26-24.48,9.26,0,0-12.55,6.99-25.3,19.54,0,0-12.75,12.55-23.86,33.53,0,0,.55-13.99,1.65-41.96l-96.26,2.47s.82,33.32,1.44,60.68c0,0,.62,27.36.82,50.39,0,0,.21,23.04.41,42.99,0,0,.21,19.95.21,38.88,0,0,0,20.98-.21,42.58,0,0-.21,21.6-.62,46.28,0,0-.41,24.68-1.03,54.1,0,0-.62,29.41-1.85,66.85,0,0,30.99.27,92.97.82,0,0-.82-5.35-1.03-18.31,0,0-.21-12.96-.41-29.83,0,0-.21-16.87-.21-35.58v-36s0-48.13,1.85-82.89c0,0,1.85-34.76,5.55-59.03,0,0,3.7-24.27,8.84-39.08,0,0,5.14-14.81,11.31-23.04,0,0,6.17-8.23,13.37-11.11,0,0,7.2-2.88,15.43-2.88,0,0,5.76,0,11.93,2.26,0,0,6.17,2.26,11.52,10.28,0,0,5.35,8.02,8.64,23.04,0,0,3.29,15.02,3.29,40.11,0,0,0,74.46-3.91,142.34,0,0-3.91,67.88-12.96,134.11,0,0,32.23-1.65,96.68-4.94,0,0,1.65-23.45,3.91-50.81,0,0,2.26-27.36,4.11-56.77,0,0,1.85-29.41,3.29-59.86,0,0,1.44-30.44,1.44-60.06,0,0,0-40.73-3.7-78.57h0Z"/>
</svg>